<?xml version="1.0" standalone="no"?>
<!DOCTYPE svg PUBLIC "-//W3C//DTD SVG 20010904//EN"
 "http://www.w3.org/TR/2001/REC-SVG-20010904/DTD/svg10.dtd">
<svg version="1.0" xmlns="http://www.w3.org/2000/svg"
 width="495.000000pt" height="882.000000pt" viewBox="0 0 495.000000 882.000000"
 preserveAspectRatio="xMidYMid meet">

<g transform="translate(0.000000,882.000000) scale(0.100000,-0.100000)"
fill="#000000" stroke="none">
<path d="M1765 8620 c-108 -12 -191 -37 -301 -90 -189 -92 -296 -219 -464
-550 -50 -100 -107 -199 -127 -221 -27 -29 -42 -61 -60 -126 -13 -47 -35 -107
-48 -133 -54 -106 -173 -218 -410 -387 -177 -126 -266 -196 -318 -250 l-38
-40 3 -123 3 -124 35 -20 c95 -56 514 0 714 94 36 17 132 82 212 145 163 126
266 185 323 185 20 0 59 -9 87 -19 28 -11 76 -23 105 -27 102 -12 140 -45 176
-154 28 -86 26 -480 -5 -689 -32 -212 -63 -373 -116 -598 -49 -207 -69 -267
-110 -337 -30 -52 -134 -149 -190 -178 -47 -24 -518 -500 -598 -605 -74 -96
-185 -283 -247 -414 -200 -425 -242 -774 -135 -1106 54 -170 174 -380 320
-563 96 -120 315 -334 410 -402 94 -67 229 -140 328 -179 49 -18 75 -35 83
-51 16 -32 75 -631 67 -677 -24 -132 -135 -209 -459 -321 -297 -102 -461 -203
-521 -321 -41 -82 -39 -83 74 -73 207 19 355 0 466 -59 59 -31 137 -101 184
-165 13 -18 29 -32 36 -32 7 0 58 22 113 50 213 106 472 170 682 170 92 0 110
3 124 18 23 26 21 71 -7 146 -38 100 -68 140 -241 316 -175 179 -222 250 -246
370 -8 41 -20 540 -13 540 1 0 26 -11 55 -24 159 -70 336 -96 664 -96 365 0
567 24 727 85 49 19 93 35 97 35 4 0 8 -11 9 -24 4 -50 45 -224 77 -327 44
-140 58 -244 45 -323 -6 -34 -31 -122 -55 -196 -82 -250 -110 -402 -103 -548
5 -106 34 -182 69 -182 12 0 45 18 73 39 66 51 133 79 215 91 68 9 129 2 168
-18 42 -23 64 -14 134 59 95 96 172 133 284 133 68 1 80 4 83 18 7 35 -29 128
-78 201 -67 100 -170 194 -334 306 -145 99 -192 143 -230 218 -64 128 -108
349 -104 529 l3 127 119 48 c150 61 226 100 296 152 130 97 237 237 373 492
161 303 220 525 220 840 0 290 -57 551 -177 811 l-35 74 38 0 c70 0 171 40
171 68 -1 23 -26 36 -86 46 l-69 11 45 27 c82 48 131 124 138 215 4 49 3 53
-17 53 -11 0 -21 -4 -21 -8 0 -13 -76 -92 -88 -92 -7 0 -5 16 7 43 25 59 41
137 41 205 0 102 -30 109 -75 18 -15 -31 -30 -58 -34 -60 -3 -2 -4 21 -2 51 6
110 -32 231 -99 307 -32 36 -127 102 -136 93 -3 -2 8 -24 24 -48 47 -71 64
-127 69 -224 4 -63 0 -111 -11 -159 -17 -73 -65 -178 -96 -210 -17 -18 -19
-17 -61 29 -61 66 -190 167 -280 221 -131 76 -222 105 -546 169 -95 19 -188
41 -206 48 -151 63 -359 585 -406 1019 -12 111 -6 195 39 503 31 210 43 277
84 465 38 171 49 303 43 480 -18 450 -122 798 -296 992 -59 65 -161 137 -240
168 -111 43 -285 64 -416 50z"/>
</g>
</svg>
