<svg width="24px" height="24px" viewBox="0 0 24 24" id="_24x24_On_Light_Messages-Alert" data-name="24x24/On Light/Messages-Alert" xmlns="http://www.w3.org/2000/svg">
  <rect id="view-box" width="24" height="24" fill="none"/>
  <path id="Shape" d="M10.751,19.5a9.66,9.66,0,0,1-4.266-.981,9.889,9.889,0,0,1-4.876.981c-.279,0-.578-.006-.887-.018a.74.74,0,0,1-.65-.432.738.738,0,0,1,.085-.775,11.191,11.191,0,0,0,2.072-3.787A9.754,9.754,0,0,1,12.682.192a5.478,5.478,0,0,0-.676,1.4A8.252,8.252,0,0,0,3.668,13.983a.75.75,0,0,1,.092.535A10.189,10.189,0,0,1,2.2,17.99a7.2,7.2,0,0,0,3.816-.947.746.746,0,0,1,.431-.136A.755.755,0,0,1,6.808,17a8.254,8.254,0,0,0,12.1-8.5,5.477,5.477,0,0,0,1.4-.676A9.755,9.755,0,0,1,10.751,19.5Zm3-7h-7a.75.75,0,0,1,0-1.5h7a.75.75,0,0,1,0,1.5Zm-2-4h-5a.75.75,0,1,1,0-1.5h5a.75.75,0,0,1,0,1.5Zm6.612-1.931h0a8.34,8.34,0,0,0-4.43-4.43,3.527,3.527,0,0,1,.781-1.3,9.773,9.773,0,0,1,4.946,4.946,3.527,3.527,0,0,1-1.3.781Z" transform="translate(1.249 2.25)" fill="#141124"/>
  <path id="Shape-2" data-name="Shape" d="M3.5,7A3.5,3.5,0,1,1,7,3.5,3.5,3.5,0,0,1,3.5,7Z" transform="translate(15 2)" fill="#ff6359"/>
</svg>
